<svg width="30" height="30" viewBox="0 0 30 30" fill="none" xmlns="http://www.w3.org/2000/svg">
<path d="M14.4756 0.5H14.6299C17.7695 0.5 20.1785 0.501499 22.0479 0.760742C23.8257 1.00693 25.1843 1.49554 26.2568 2.49219L26.4678 2.69824C27.5735 3.83803 28.0977 5.30691 28.3535 7.27051C28.6055 9.19954 28.6064 11.686 28.6064 14.9209V15.0791C28.6064 18.314 28.6055 20.801 28.3535 22.7314C28.0978 24.6931 27.5723 26.1618 26.4678 27.3018C25.364 28.4394 23.945 28.9766 22.0469 29.2393C20.1789 29.4985 17.7697 29.5 14.6299 29.5H14.4756C11.3362 29.5 8.92786 29.4985 7.05859 29.2393C5.16217 28.9767 3.74269 28.4384 2.63867 27.3018C1.5329 26.162 1.0087 24.6931 0.75293 22.7295C0.500929 20.8005 0.5 18.314 0.5 15.0791V14.9209C0.5 11.686 0.5009 9.19904 0.75293 7.26855C1.00866 5.30687 1.53311 3.83721 2.6377 2.69727L2.63867 2.69824C3.67347 1.63167 4.9851 1.09211 6.70898 0.8125L7.05957 0.760742C8.92749 0.501493 11.336 0.5 14.4756 0.5ZM1.56738 10.4541C1.55136 11.212 1.54029 11.9705 1.53418 12.7285L1.53027 15C1.53027 18.3044 1.53272 20.7264 1.77344 22.5801C2.01325 24.418 2.48203 25.6147 3.35742 26.5186V26.5195C4.18153 27.3674 5.25811 27.8464 6.86426 28.1074L7.19336 28.1562C8.9953 28.4048 11.3482 28.4072 14.5527 28.4072C17.3569 28.4072 19.5095 28.4061 21.2109 28.2393L21.9131 28.1562C23.7033 27.9081 24.871 27.4228 25.75 26.5186L25.751 26.5176C26.6264 25.6136 27.0932 24.4177 27.333 22.5801C27.5737 20.7264 27.5762 18.3044 27.5762 15C27.5762 13.247 27.5759 11.7462 27.5391 10.4512L27.5254 9.96484H1.57812L1.56738 10.4541ZM11.085 1.60938C9.5543 1.63318 8.27642 1.69441 7.19238 1.84375H7.19141C5.40268 2.09191 4.23513 2.57777 3.35742 3.48242C2.53513 4.33001 2.07338 5.43406 1.82129 7.08301L1.77344 7.41992C1.73584 7.70986 1.70336 8.01215 1.67578 8.3291L1.62891 8.87207H7.50586L7.65234 8.63477L11.5186 2.37207L11.998 1.5957L11.085 1.60938ZM13.0059 1.93164C12.9923 1.97155 12.9747 2.00966 12.9531 2.04492L9.20801 8.10938L8.7373 8.87207H16.3047L16.4512 8.63477L20.2832 2.42773L20.7266 1.70898L19.8828 1.66602C18.431 1.59268 16.6818 1.59277 14.5527 1.59277H13.1221L13.0059 1.93164ZM21.7061 2.11914L18.0078 8.10938L17.5371 8.87207H27.4766L27.4287 8.3291C27.415 8.17165 27.4007 8.01687 27.3848 7.86523L27.332 7.41797C27.0935 5.58148 26.6259 4.38431 25.749 3.48047C24.9209 2.62701 23.8342 2.14746 22.2109 1.8877L21.8818 1.83594L21.7061 2.11914Z" fill="#6563FF" stroke="black"/>
</svg>
